<svg version="1.1" viewBox="0.0 0.0 812.0 571.0" fill="none" stroke="none" stroke-linecap="square" stroke-miterlimit="10" width="812" height="571" xmlns:xlink="http://www.w3.org/1999/xlink" xmlns="http://www.w3.org/2000/svg"><path fill="#434343" d="M0 0L812.0 0L812.0 571.0L0 571.0L0 0Z" fill-rule="nonzero"/><path fill="#865513" d="M406.0 224.41376C417.70993 224.41376 429.3469 225.70393 440.48373 228.23692L440.48373 261.71442C429.3469 259.18143 417.70993 257.89124 406.0 257.89124Z" fill-rule="nonzero"/><path fill="#c0791b" d="M406.0 146.29958C429.4199 146.29958 452.69382 148.87994 474.96744 153.94594L440.48373 228.23692C429.3469 225.70393 417.70993 224.41376 406.0 224.41376Z" fill-rule="nonzero"/><path fill="#639794" d="M315.72046 256.61356C336.71677 236.38431 370.27896 224.41376 406.0 224.41376L406.0 257.89124C370.27896 257.89124 336.71677 269.86182 315.72046 290.09106Z" fill-rule="nonzero"/><path fill="#8dd8d3" d="M225.44089 210.6992C267.4335 170.24069 334.5579 146.29958 406.0 146.29958L406.0 224.41376C370.27896 224.41376 336.71677 236.38431 315.72046 256.61356Z" fill-rule="nonzero"/><path fill="#1b1b61" d="M299.87003 278.3893C303.4886 270.59354 308.83752 263.24503 315.72046 256.61356L315.72046 290.09106C308.83752 296.72253 303.4886 304.07104 299.87003 311.86682Z" fill-rule="nonzero"/><path fill="#27278b" d="M193.74004 254.2507C200.97717 238.65916 211.67503 223.96216 225.44089 210.6992L315.72046 256.61356C308.83752 263.24503 303.4886 270.59354 299.87003 278.3893Z" fill-rule="nonzero"/><path fill="#b1403e" d="M337.03256 484.5874C245.07597 463.67242 182.81667 403.68762 182.81667 336.0054L182.81667 302.52792C182.81667 370.21014 245.07597 430.19495 337.03256 451.1099Z" fill-rule="nonzero"/><path fill="#b1403e" d="M294.40833 302.52792C294.40833 294.33096 296.25143 286.1851 299.87003 278.3893L299.87003 311.86682C296.25143 319.66257 294.40833 327.80847 294.40833 336.0054Z" fill-rule="nonzero"/><path fill="#fd5b58" d="M337.03256 451.1099C219.80461 424.4471 155.65038 336.31027 193.74004 254.2507L299.87003 278.3893C280.8252 319.4191 312.9023 363.48752 371.51627 376.8189Z" fill-rule="nonzero"/><path fill="#084551" d="M629.18335 336.0054C629.18335 386.0149 594.98175 433.00195 537.1839 462.3968C479.386 491.79163 404.97803 500.04117 337.03256 484.5874L337.03256 451.1099C404.97803 466.56366 479.386 458.31412 537.1839 428.91928C594.98175 399.52448 629.18335 352.53738 629.18335 302.52792Z" fill-rule="nonzero"/><path fill="#084551" d="M440.48373 228.23692C486.462 238.69441 517.5917 268.6868 517.5917 302.52792L517.5917 336.0054C517.5917 302.1643 486.462 272.1719 440.48373 261.71442Z" fill-rule="nonzero"/><path fill="#0b6374" d="M474.96744 153.94594C550.8006 171.19373 607.7283 215.4509 624.3062 270.04623C640.8842 324.64154 614.594 381.28067 555.3388 418.6282C496.08362 455.97574 412.86575 468.35767 337.03256 451.1099L371.51627 376.8189C409.43286 385.4428 451.0418 379.25183 480.6694 360.57806C510.297 341.9043 523.44214 313.58472 515.15314 286.28708C506.86414 258.9894 478.4003 236.86082 440.48373 228.23692Z" fill-rule="nonzero"/><path fill="#ffffff" d="M41.14375 157.13123Q41.14375 159.22498 40.440624 160.78748Q39.7375 162.33435 38.440624 163.16248Q37.159374 163.9906 35.440624 163.9906Q33.753124 163.9906 32.45625 163.16248Q31.159374 162.33435 30.440624 160.8031Q29.721874 159.27185 29.70625 157.25623L29.70625 156.2406Q29.70625 154.19373 30.409374 152.6156Q31.128124 151.03748 32.425 150.20935Q33.7375 149.3656 35.409374 149.3656Q37.128124 149.3656 38.425 150.19373Q39.7375 151.02185 40.440624 152.59998Q41.14375 154.16248 41.14375 156.2406L41.14375 157.13123ZM39.26875 156.22498Q39.26875 153.69373 38.253124 152.34998Q37.2375 150.9906 35.409374 150.9906Q33.64375 150.9906 32.6125 152.34998Q31.596874 153.69373 31.565624 156.08435L31.565624 157.13123Q31.565624 159.58435 32.596874 160.9906Q33.628124 162.39685 35.440624 162.39685Q37.253124 162.39685 38.2375 161.06873Q39.2375 159.7406 39.26875 157.27185L39.26875 156.22498ZM52.846874 158.6156Q52.846874 161.03748 51.7375 162.52185Q50.64375 163.9906 48.753124 163.9906Q46.83125 163.9906 45.721874 162.75623L45.721874 167.84998L43.925 167.84998L43.925 153.22498L45.565624 153.22498L45.659374 154.39685Q46.753124 153.02185 48.721874 153.02185Q50.628124 153.02185 51.7375 154.45935Q52.846874 155.89685 52.846874 158.45935L52.846874 158.6156ZM51.034374 158.41248Q51.034374 156.63123 50.26875 155.59998Q49.51875 154.5531 48.190624 154.5531Q46.55 154.5531 45.721874 156.00623L45.721874 161.06873Q46.534374 162.50623 48.20625 162.50623Q49.503124 162.50623 50.26875 161.47498Q51.034374 160.44373 51.034374 158.41248ZM59.3 163.9906Q57.159374 163.9906 55.8 162.58435Q54.45625 161.16248 54.45625 158.8031L54.45625 158.45935Q54.45625 156.89685 55.05 155.66248Q55.659374 154.4281 56.7375 153.72498Q57.815624 153.02185 59.08125 153.02185Q61.14375 153.02185 62.284374 154.38123Q63.425 155.7406 63.425 158.27185L63.425 159.02185L56.26875 159.02185Q56.3 160.58435 57.175 161.5531Q58.05 162.50623 59.39375 162.50623Q60.3625 162.50623 61.01875 162.1156Q61.690624 161.72498 62.190624 161.08435L63.284374 161.94373Q61.95625 163.9906 59.3 163.9906ZM59.08125 154.50623Q57.9875 154.50623 57.2375 155.3031Q56.503124 156.09998 56.33125 157.53748L61.6125 157.53748L61.6125 157.39685Q61.534374 156.02185 60.8625 155.27185Q60.20625 154.50623 59.08125 154.50623ZM71.01875 154.83435Q70.6125 154.77185 70.14375 154.77185Q68.3625 154.77185 67.72188 156.28748L67.72188 163.78748L65.925 163.78748L65.925 153.22498L67.675 153.22498L67.70625 154.44373Q68.59688 153.02185 70.22188 153.02185Q70.75313 153.02185 71.01875 153.16248L71.01875 154.83435ZM79.44063 163.78748Q79.28438 163.47498 79.19063 162.6781Q77.925 163.9906 76.175 163.9906Q74.6125 163.9906 73.6125 163.09998Q72.6125 162.20935 72.6125 160.84998Q72.6125 159.20935 73.8625 158.3031Q75.12813 157.38123 77.39375 157.38123L79.15938 157.38123L79.15938 156.5531Q79.15938 155.59998 78.58125 155.03748Q78.01875 154.47498 76.925 154.47498Q75.95625 154.47498 75.3 154.97498Q74.64375 155.45935 74.64375 156.14685L72.83125 156.14685Q72.83125 155.3656 73.39375 154.63123Q73.95625 153.88123 74.90938 153.45935Q75.87813 153.02185 77.03438 153.02185Q78.8625 153.02185 79.89375 153.94373Q80.925 154.84998 80.97188 156.45935L80.97188 161.31873Q80.97188 162.77185 81.33125 163.63123L81.33125 163.78748L79.44063 163.78748ZM76.44063 162.41248Q77.3 162.41248 78.05 161.97498Q78.81563 161.53748 79.15938 160.83435L79.15938 158.66248L77.7375 158.66248Q74.425 158.66248 74.425 160.59998Q74.425 161.45935 74.9875 161.94373Q75.55 162.41248 76.44063 162.41248ZM86.3625 150.66248L86.3625 153.22498L88.34688 153.22498L88.34688 154.6156L86.3625 154.6156L86.3625 161.16248Q86.3625 161.8031 86.62813 162.13123Q86.89375 162.44373 87.53438 162.44373Q87.84688 162.44373 88.39375 162.31873L88.39375 163.78748Q87.675 163.9906 87.00313 163.9906Q85.8 163.9906 85.175 163.25623Q84.56563 162.52185 84.56563 161.16248L84.56563 154.6156L82.64375 154.6156L82.64375 153.22498L84.56563 153.22498L84.56563 150.66248L86.3625 150.66248ZM92.87813 163.78748L91.08125 163.78748L91.08125 153.22498L92.87813 153.22498L92.87813 163.78748ZM90.925 150.41248Q90.925 149.97498 91.19063 149.6781Q91.47188 149.3656 91.9875 149.3656Q92.51875 149.3656 92.78438 149.6781Q93.06563 149.97498 93.06563 150.41248Q93.06563 150.84998 92.78438 151.14685Q92.51875 151.44373 91.9875 151.44373Q91.47188 151.44373 91.19063 151.14685Q90.925 150.84998 90.925 150.41248ZM95.44063 158.41248Q95.44063 156.84998 96.05 155.6156Q96.65938 154.3656 97.7375 153.69373Q98.83125 153.02185 100.2375 153.02185Q102.39375 153.02185 103.72188 154.52185Q105.06563 156.00623 105.06563 158.4906L105.06563 158.6156Q105.06563 160.16248 104.47188 161.39685Q103.87813 162.6156 102.76875 163.3031Q101.675 163.9906 100.25313 163.9906Q98.1125 163.9906 96.76875 162.4906Q95.44063 160.9906 95.44063 158.53748L95.44063 158.41248ZM97.25313 158.6156Q97.25313 160.38123 98.06563 161.44373Q98.89375 162.50623 100.25313 162.50623Q101.62813 162.50623 102.44063 161.4281Q103.25313 160.34998 103.25313 158.41248Q103.25313 156.66248 102.425 155.58435Q101.59688 154.50623 100.2375 154.50623Q98.89375 154.50623 98.06563 155.56873Q97.25313 156.63123 97.25313 158.6156ZM108.62813 153.22498L108.69063 154.5531Q109.89375 153.02185 111.84688 153.02185Q115.20625 153.02185 115.22188 156.8031L115.22188 163.78748L113.425 163.78748L113.425 156.78748Q113.40938 155.64685 112.89375 155.09998Q112.39375 154.5531 111.3 154.5531Q110.425 154.5531 109.75313 155.02185Q109.09688 155.4906 108.72188 156.25623L108.72188 163.78748L106.925 163.78748L106.925 153.22498L108.62813 153.22498ZM124.06563 160.9906Q124.06563 160.25623 123.51875 159.84998Q122.97188 159.44373 121.59688 159.14685Q120.22188 158.84998 119.40938 158.44373Q118.6125 158.03748 118.22188 157.47498Q117.84688 156.89685 117.84688 156.1156Q117.84688 154.81873 118.94063 153.9281Q120.03438 153.02185 121.75313 153.02185Q123.55 153.02185 124.65938 153.95935Q125.78438 154.88123 125.78438 156.31873L123.95625 156.31873Q123.95625 155.58435 123.33125 155.0531Q122.70625 154.50623 121.75313 154.50623Q120.75313 154.50623 120.19063 154.94373Q119.64375 155.3656 119.64375 156.06873Q119.64375 156.70935 120.15938 157.0531Q120.675 157.38123 122.03438 157.69373Q123.39375 157.9906 124.22188 158.41248Q125.06563 158.81873 125.47188 159.41248Q125.87813 160.00623 125.87813 160.84998Q125.87813 162.27185 124.7375 163.13123Q123.6125 163.9906 121.8 163.9906Q120.53438 163.9906 119.55 163.53748Q118.58125 163.08435 118.01875 162.28748Q117.47188 161.47498 117.47188 160.53748L119.28438 160.53748Q119.33125 161.44373 120.00313 161.97498Q120.69063 162.50623 121.8 162.50623Q122.83125 162.50623 123.44063 162.09998Q124.06563 161.6781 124.06563 160.9906Z" fill-rule="nonzero"/><path fill="#a4a4a4" d="M35.675 190.78748L33.846874 190.78748L33.846874 178.7406L30.20625 180.08435L30.20625 178.44373L35.39375 176.50623L35.675 176.50623L35.675 190.78748ZM41.565624 183.66248L42.284374 176.56873L49.565624 176.56873L49.565624 178.2406L43.815624 178.2406L43.39375 182.1156Q44.440624 181.50623 45.76875 181.50623Q47.70625 181.50623 48.846874 182.78748Q49.9875 184.06873 49.9875 186.25623Q49.9875 188.45935 48.8 189.72498Q47.6125 190.9906 45.4875 190.9906Q43.596874 190.9906 42.409374 189.94373Q41.221874 188.89685 41.05 187.0531L42.76875 187.0531Q42.925 188.27185 43.628124 188.89685Q44.33125 189.50623 45.4875 189.50623Q46.753124 189.50623 47.471874 188.64685Q48.190624 187.78748 48.190624 186.27185Q48.190624 184.84998 47.409374 183.9906Q46.628124 183.1156 45.346874 183.1156Q44.159374 183.1156 43.4875 183.63123L43.003124 184.02185L41.565624 183.66248ZM51.95625 189.83435Q51.95625 189.3656 52.2375 189.0531Q52.51875 188.7406 53.065624 188.7406Q53.628124 188.7406 53.909374 189.0531Q54.20625 189.3656 54.20625 189.83435Q54.20625 190.28748 53.909374 190.59998Q53.628124 190.89685 53.065624 190.89685Q52.51875 190.89685 52.2375 190.59998Q51.95625 190.28748 51.95625 189.83435ZM65.64375 184.72498Q65.64375 187.89685 64.56563 189.44373Q63.4875 190.9906 61.175 190.9906Q58.89375 190.9906 57.8 189.47498Q56.70625 187.95935 56.675 184.95935L56.675 182.5531Q56.675 179.41248 57.753124 177.89685Q58.846874 176.3656 61.159374 176.3656Q63.45625 176.3656 64.53438 177.84998Q65.6125 179.31873 65.64375 182.38123L65.64375 184.72498ZM63.846874 182.25623Q63.846874 179.95935 63.190624 178.91248Q62.55 177.84998 61.159374 177.84998Q59.76875 177.84998 59.128124 178.89685Q58.503124 179.94373 58.4875 182.1156L58.4875 185.00623Q58.4875 187.3031 59.14375 188.41248Q59.815624 189.50623 61.175 189.50623Q62.51875 189.50623 63.159374 188.47498Q63.815624 187.44373 63.846874 185.20935L63.846874 182.25623ZM67.58125 179.3031Q67.58125 178.02185 68.39375 177.19373Q69.20625 176.3656 70.4875 176.3656Q71.78438 176.3656 72.58125 177.20935Q73.39375 178.03748 73.39375 179.3656L73.39375 180.0531Q73.39375 181.34998 72.58125 182.16248Q71.76875 182.97498 70.50313 182.97498Q69.2375 182.97498 68.40938 182.16248Q67.58125 181.34998 67.58125 179.9906L67.58125 179.3031ZM68.925 180.0531Q68.925 180.81873 69.34688 181.31873Q69.78438 181.8031 70.50313 181.8031Q71.20625 181.8031 71.62813 181.33435Q72.05 180.84998 72.05 180.02185L72.05 179.3031Q72.05 178.53748 71.62813 178.03748Q71.20625 177.53748 70.4875 177.53748Q69.76875 177.53748 69.34688 178.03748Q68.925 178.53748 68.925 179.33435L68.925 180.0531ZM74.50313 187.3031Q74.50313 186.02185 75.31563 185.19373Q76.12813 184.3656 77.40938 184.3656Q78.69063 184.3656 79.50313 185.19373Q80.33125 186.00623 80.33125 187.3656L80.33125 188.06873Q80.33125 189.33435 79.51875 190.16248Q78.70625 190.9906 77.425 190.9906Q76.15938 190.9906 75.33125 190.1781Q74.50313 189.3656 74.50313 188.00623L74.50313 187.3031ZM75.84688 188.06873Q75.84688 188.83435 76.26875 189.33435Q76.70625 189.81873 77.425 189.81873Q78.12813 189.81873 78.55 189.33435Q78.97188 188.84998 78.97188 188.02185L78.97188 187.3031Q78.97188 186.52185 78.55 186.03748Q78.12813 185.5531 77.40938 185.5531Q76.72188 185.5531 76.28438 186.03748Q75.84688 186.52185 75.84688 187.33435L75.84688 188.06873ZM70.90938 189.70935L69.89375 189.06873L76.83125 177.95935L77.8625 178.59998L70.90938 189.70935Z" fill-rule="nonzero"/><path stroke="#cdcdcd" stroke-width="1.0" stroke-linecap="butt" d="M28.55 170.28748L176.81667 170.28748L309.74304 170.28748" fill-rule="nonzero"/><path fill="#a4a4a4" d="M311.74304 170.28748C311.74304 169.1829 310.84763 168.28748 309.74304 168.28748C308.63846 168.28748 307.74304 169.1829 307.74304 170.28748C307.74304 171.39204 308.63846 172.28748 309.74304 172.28748C310.84763 172.28748 311.74304 171.39204 311.74304 170.28748" fill-rule="nonzero"/><path fill="#ffffff" d="M35.409374 222.89804L32.08125 222.89804L32.08125 228.64804L30.190624 228.64804L30.190624 214.42929L34.89375 214.42929Q37.3 214.42929 38.596874 215.52304Q39.89375 216.61679 39.89375 218.71054Q39.89375 220.03867 39.175 221.02304Q38.45625 222.00742 37.175 222.49179L40.51875 228.52304L40.51875 228.64804L38.503124 228.64804L35.409374 222.89804ZM32.08125 221.36679L34.95625 221.36679Q36.346874 221.36679 37.175 220.64804Q38.003124 219.91367 38.003124 218.71054Q38.003124 217.38242 37.20625 216.67929Q36.425 215.97617 34.940624 215.97617L32.08125 215.97617L32.08125 221.36679ZM48.440624 228.64804Q48.284374 228.33554 48.190624 227.53867Q46.925 228.85117 45.175 228.85117Q43.6125 228.85117 42.6125 227.96054Q41.6125 227.06992 41.6125 225.71054Q41.6125 224.06992 42.8625 223.16367Q44.128124 222.24179 46.39375 222.24179L48.159374 222.24179L48.159374 221.41367Q48.159374 220.46054 47.58125 219.89804Q47.01875 219.33554 45.925 219.33554Q44.95625 219.33554 44.3 219.83554Q43.64375 220.31992 43.64375 221.00742L41.83125 221.00742Q41.83125 220.22617 42.39375 219.49179Q42.95625 218.74179 43.909374 218.31992Q44.878124 217.88242 46.034374 217.88242Q47.8625 217.88242 48.89375 218.80429Q49.925 219.71054 49.971874 221.31992L49.971874 226.17929Q49.971874 227.63242 50.33125 228.49179L50.33125 228.64804L48.440624 228.64804ZM45.440624 227.27304Q46.3 227.27304 47.05 226.83554Q47.815624 226.39804 48.159374 225.69492L48.159374 223.52304L46.7375 223.52304Q43.425 223.52304 43.425 225.46054Q43.425 226.31992 43.9875 226.80429Q44.55 227.27304 45.440624 227.27304ZM58.01875 219.69492Q57.6125 219.63242 57.14375 219.63242Q55.3625 219.63242 54.721874 221.14804L54.721874 228.64804L52.925 228.64804L52.925 218.08554L54.675 218.08554L54.70625 219.30429Q55.596874 217.88242 57.221874 217.88242Q57.753124 217.88242 58.01875 218.02304L58.01875 219.69492ZM64.3 228.85117Q62.159374 228.85117 60.8 227.44492Q59.45625 226.02304 59.45625 223.66367L59.45625 223.31992Q59.45625 221.75742 60.05 220.52304Q60.659374 219.28867 61.7375 218.58554Q62.815624 217.88242 64.08125 217.88242Q66.14375 217.88242 67.28438 219.24179Q68.425 220.60117 68.425 223.13242L68.425 223.88242L61.26875 223.88242Q61.3 225.44492 62.175 226.41367Q63.05 227.36679 64.39375 227.36679Q65.3625 227.36679 66.01875 226.97617Q66.69063 226.58554 67.19063 225.94492L68.28438 226.80429Q66.95625 228.85117 64.3 228.85117ZM64.08125 219.36679Q62.9875 219.36679 62.2375 220.16367Q61.503124 220.96054 61.33125 222.39804L66.6125 222.39804L66.6125 222.25742Q66.53438 220.88242 65.8625 220.13242Q65.20625 219.36679 64.08125 219.36679ZM79.8625 223.47617Q79.8625 225.89804 78.75313 227.38242Q77.64375 228.85117 75.76875 228.85117Q73.75313 228.85117 72.65938 227.42929L72.58125 228.64804L70.925 228.64804L70.925 213.64804L72.72188 213.64804L72.72188 219.24179Q73.81563 217.88242 75.7375 217.88242Q77.65938 217.88242 78.75313 219.33554Q79.8625 220.78867 79.8625 223.31992L79.8625 223.47617ZM78.05 223.27304Q78.05 221.42929 77.33125 220.42929Q76.62813 219.41367 75.3 219.41367Q73.50313 219.41367 72.72188 221.08554L72.72188 225.64804Q73.55 227.30429 75.31563 227.30429Q76.6125 227.30429 77.33125 226.30429Q78.05 225.30429 78.05 223.27304ZM81.44063 223.27304Q81.44063 221.71054 82.05 220.47617Q82.65938 219.22617 83.7375 218.55429Q84.83125 217.88242 86.2375 217.88242Q88.39375 217.88242 89.72188 219.38242Q91.06563 220.86679 91.06563 223.35117L91.06563 223.47617Q91.06563 225.02304 90.47188 226.25742Q89.87813 227.47617 88.76875 228.16367Q87.675 228.85117 86.25313 228.85117Q84.1125 228.85117 82.76875 227.35117Q81.44063 225.85117 81.44063 223.39804L81.44063 223.27304ZM83.25313 223.47617Q83.25313 225.24179 84.06563 226.30429Q84.89375 227.36679 86.25313 227.36679Q87.62813 227.36679 88.44063 226.28867Q89.25313 225.21054 89.25313 223.27304Q89.25313 221.52304 88.425 220.44492Q87.59688 219.36679 86.2375 219.36679Q84.89375 219.36679 84.06563 220.42929Q83.25313 221.49179 83.25313 223.47617ZM99.44063 228.64804Q99.28438 228.33554 99.19063 227.53867Q97.925 228.85117 96.175 228.85117Q94.6125 228.85117 93.6125 227.96054Q92.6125 227.06992 92.6125 225.71054Q92.6125 224.06992 93.8625 223.16367Q95.12813 222.24179 97.39375 222.24179L99.15938 222.24179L99.15938 221.41367Q99.15938 220.46054 98.58125 219.89804Q98.01875 219.33554 96.925 219.33554Q95.95625 219.33554 95.3 219.83554Q94.64375 220.31992 94.64375 221.00742L92.83125 221.00742Q92.83125 220.22617 93.39375 219.49179Q93.95625 218.74179 94.90938 218.31992Q95.87813 217.88242 97.03438 217.88242Q98.8625 217.88242 99.89375 218.80429Q100.925 219.71054 100.97188 221.31992L100.97188 226.17929Q100.97188 227.63242 101.33125 228.49179L101.33125 228.64804L99.44063 228.64804ZM96.44063 227.27304Q97.3 227.27304 98.05 226.83554Q98.81563 226.39804 99.15938 225.69492L99.15938 223.52304L97.7375 223.52304Q94.425 223.52304 94.425 225.46054Q94.425 226.31992 94.9875 226.80429Q95.55 227.27304 96.44063 227.27304ZM109.01875 219.69492Q108.6125 219.63242 108.14375 219.63242Q106.3625 219.63242 105.72188 221.14804L105.72188 228.64804L103.925 228.64804L103.925 218.08554L105.675 218.08554L105.70625 219.30429Q106.59688 217.88242 108.22188 217.88242Q108.75313 217.88242 109.01875 218.02304L109.01875 219.69492ZM110.47188 223.27304Q110.47188 220.85117 111.62813 219.36679Q112.78438 217.88242 114.64375 217.88242Q116.50313 217.88242 117.58125 219.14804L117.58125 213.64804L119.39375 213.64804L119.39375 228.64804L117.7375 228.64804L117.64375 227.50742Q116.56563 228.85117 114.62813 228.85117Q112.8 228.85117 111.62813 227.35117Q110.47188 225.83554 110.47188 223.41367L110.47188 223.27304ZM112.28438 223.47617Q112.28438 225.27304 113.01875 226.28867Q113.76875 227.30429 115.08125 227.30429Q116.8 227.30429 117.58125 225.77304L117.58125 220.91367Q116.78438 219.41367 115.09688 219.41367Q113.76875 219.41367 113.01875 220.44492Q112.28438 221.47617 112.28438 223.47617Z" fill-rule="nonzero"/><path fill="#a4a4a4" d="M30.565624 248.52304L31.284374 241.42929L38.565624 241.42929L38.565624 243.10117L32.815624 243.10117L32.39375 246.97617Q33.440624 246.36679 34.76875 246.36679Q36.70625 246.36679 37.846874 247.64804Q38.9875 248.92929 38.9875 251.11679Q38.9875 253.31992 37.8 254.58554Q36.6125 255.85117 34.4875 255.85117Q32.596874 255.85117 31.409374 254.80429Q30.221874 253.75742 30.05 251.91367L31.76875 251.91367Q31.925 253.13242 32.628124 253.75742Q33.33125 254.36679 34.4875 254.36679Q35.753124 254.36679 36.471874 253.50742Q37.190624 252.64804 37.190624 251.13242Q37.190624 249.71054 36.409374 248.85117Q35.628124 247.97617 34.346874 247.97617Q33.159374 247.97617 32.4875 248.49179L32.003124 248.88242L30.565624 248.52304ZM40.95625 254.69492Q40.95625 254.22617 41.2375 253.91367Q41.51875 253.60117 42.065624 253.60117Q42.628124 253.60117 42.909374 253.91367Q43.20625 254.22617 43.20625 254.69492Q43.20625 255.14804 42.909374 255.46054Q42.628124 255.75742 42.065624 255.75742Q41.51875 255.75742 41.2375 255.46054Q40.95625 255.14804 40.95625 254.69492ZM54.64375 249.58554Q54.64375 252.75742 53.565624 254.30429Q52.4875 255.85117 50.175 255.85117Q47.89375 255.85117 46.8 254.33554Q45.70625 252.81992 45.675 249.81992L45.675 247.41367Q45.675 244.27304 46.753124 242.75742Q47.846874 241.22617 50.159374 241.22617Q52.45625 241.22617 53.534374 242.71054Q54.6125 244.17929 54.64375 247.24179L54.64375 249.58554ZM52.846874 247.11679Q52.846874 244.81992 52.190624 243.77304Q51.55 242.71054 50.159374 242.71054Q48.76875 242.71054 48.128124 243.75742Q47.503124 244.80429 47.4875 246.97617L47.4875 249.86679Q47.4875 252.16367 48.14375 253.27304Q48.815624 254.36679 50.175 254.36679Q51.51875 254.36679 52.159374 253.33554Q52.815624 252.30429 52.846874 250.06992L52.846874 247.11679ZM56.58125 244.16367Q56.58125 242.88242 57.39375 242.05429Q58.20625 241.22617 59.4875 241.22617Q60.784374 241.22617 61.58125 242.06992Q62.39375 242.89804 62.39375 244.22617L62.39375 244.91367Q62.39375 246.21054 61.58125 247.02304Q60.76875 247.83554 59.503124 247.83554Q58.2375 247.83554 57.409374 247.02304Q56.58125 246.21054 56.58125 244.85117L56.58125 244.16367ZM57.925 244.91367Q57.925 245.67929 58.346874 246.17929Q58.784374 246.66367 59.503124 246.66367Q60.20625 246.66367 60.628124 246.19492Q61.05 245.71054 61.05 244.88242L61.05 244.16367Q61.05 243.39804 60.628124 242.89804Q60.20625 242.39804 59.4875 242.39804Q58.76875 242.39804 58.346874 242.89804Q57.925 243.39804 57.925 244.19492L57.925 244.91367ZM63.503124 252.16367Q63.503124 250.88242 64.31563 250.05429Q65.12813 249.22617 66.40938 249.22617Q67.69063 249.22617 68.50313 250.05429Q69.33125 250.86679 69.33125 252.22617L69.33125 252.92929Q69.33125 254.19492 68.51875 255.02304Q67.70625 255.85117 66.425 255.85117Q65.15938 255.85117 64.33125 255.03867Q63.503124 254.22617 63.503124 252.86679L63.503124 252.16367ZM64.84688 252.92929Q64.84688 253.69492 65.26875 254.19492Q65.70625 254.67929 66.425 254.67929Q67.12813 254.67929 67.55 254.19492Q67.97188 253.71054 67.97188 252.88242L67.97188 252.16367Q67.97188 251.38242 67.55 250.89804Q67.12813 250.41367 66.40938 250.41367Q65.72188 250.41367 65.28438 250.89804Q64.84688 251.38242 64.84688 252.19492L64.84688 252.92929ZM59.909374 254.56992L58.89375 253.92929L65.83125 242.81992L66.8625 243.46054L59.909374 254.56992Z" fill-rule="nonzero"/><path stroke="#cdcdcd" stroke-width="1.0" stroke-linecap="butt" d="M28.55 235.14804L176.81667 235.14804L217.08508 235.14804" fill-rule="nonzero"/><path fill="#a4a4a4" d="M219.08508 235.14804C219.08508 234.04347 218.18965 233.14804 217.08508 233.14804C215.98051 233.14804 215.08508 234.04347 215.08508 235.14804C215.08508 236.25261 215.98051 237.14804 217.08508 237.14804C218.18965 237.14804 219.08508 236.25261 219.08508 235.14804" fill-rule="nonzero"/><path fill="#ffffff" d="M40.01875 350.7359L35.45625 350.7359L35.45625 363.40778L33.596874 363.40778L33.596874 350.7359L29.034374 350.7359L29.034374 349.18903L40.01875 349.18903L40.01875 350.7359ZM46.3 363.6109Q44.159374 363.6109 42.8 362.20465Q41.45625 360.78278 41.45625 358.4234L41.45625 358.07965Q41.45625 356.51715 42.05 355.28278Q42.659374 354.0484 43.7375 353.34528Q44.815624 352.64215 46.08125 352.64215Q48.14375 352.64215 49.284374 354.00153Q50.425 355.3609 50.425 357.89215L50.425 358.64215L43.26875 358.64215Q43.3 360.20465 44.175 361.1734Q45.05 362.12653 46.39375 362.12653Q47.3625 362.12653 48.01875 361.7359Q48.690624 361.34528 49.190624 360.70465L50.284374 361.56403Q48.95625 363.6109 46.3 363.6109ZM46.08125 354.12653Q44.9875 354.12653 44.2375 354.9234Q43.503124 355.72028 43.33125 357.15778L48.6125 357.15778L48.6125 357.01715Q48.534374 355.64215 47.8625 354.89215Q47.20625 354.12653 46.08125 354.12653ZM59.440624 363.40778Q59.284374 363.09528 59.190624 362.2984Q57.925 363.6109 56.175 363.6109Q54.6125 363.6109 53.6125 362.72028Q52.6125 361.82965 52.6125 360.47028Q52.6125 358.82965 53.8625 357.9234Q55.128124 357.00153 57.39375 357.00153L59.159374 357.00153L59.159374 356.1734Q59.159374 355.22028 58.58125 354.65778Q58.01875 354.09528 56.925 354.09528Q55.95625 354.09528 55.3 354.59528Q54.64375 355.07965 54.64375 355.76715L52.83125 355.76715Q52.83125 354.9859 53.39375 354.25153Q53.95625 353.50153 54.909374 353.07965Q55.878124 352.64215 57.034374 352.64215Q58.8625 352.64215 59.89375 353.56403Q60.925 354.47028 60.971874 356.07965L60.971874 360.93903Q60.971874 362.39215 61.33125 363.25153L61.33125 363.40778L59.440624 363.40778ZM56.440624 362.03278Q57.3 362.03278 58.05 361.59528Q58.815624 361.15778 59.159374 360.45465L59.159374 358.28278L57.7375 358.28278Q54.425 358.28278 54.425 360.22028Q54.425 361.07965 54.9875 361.56403Q55.55 362.03278 56.440624 362.03278ZM65.6125 352.84528L65.65938 354.01715Q66.83125 352.64215 68.8 352.64215Q71.01875 352.64215 71.81563 354.34528Q72.34688 353.57965 73.19063 353.1109Q74.03438 352.64215 75.19063 352.64215Q78.65938 352.64215 78.72188 356.32965L78.72188 363.40778L76.90938 363.40778L76.90938 356.43903Q76.90938 355.2984 76.39375 354.7359Q75.87813 354.1734 74.65938 354.1734Q73.65938 354.1734 72.9875 354.78278Q72.33125 355.37653 72.22188 356.39215L72.22188 363.40778L70.40938 363.40778L70.40938 356.4859Q70.40938 354.1734 68.14375 354.1734Q66.3625 354.1734 65.72188 355.68903L65.72188 363.40778L63.909374 363.40778L63.909374 352.84528L65.6125 352.84528Z" fill-rule="nonzero"/><path fill="#a4a4a4" d="M39.05 390.40778L29.7375 390.40778L29.7375 389.1109L34.659374 383.64215Q35.753124 382.39215 36.159374 381.62653Q36.58125 380.84528 36.58125 380.01715Q36.58125 378.90778 35.909374 378.18903Q35.2375 377.47028 34.1125 377.47028Q32.753124 377.47028 32.003124 378.25153Q31.26875 379.01715 31.26875 380.37653L29.45625 380.37653Q29.45625 378.40778 30.721874 377.20465Q31.9875 375.9859 34.1125 375.9859Q36.096874 375.9859 37.2375 377.03278Q38.39375 378.07965 38.39375 379.7984Q38.39375 381.90778 35.721874 384.7984L31.909374 388.93903L39.05 388.93903L39.05 390.40778ZM41.565624 383.28278L42.284374 376.18903L49.565624 376.18903L49.565624 377.8609L43.815624 377.8609L43.39375 381.7359Q44.440624 381.12653 45.76875 381.12653Q47.70625 381.12653 48.846874 382.40778Q49.9875 383.68903 49.9875 385.87653Q49.9875 388.07965 48.8 389.34528Q47.6125 390.6109 45.4875 390.6109Q43.596874 390.6109 42.409374 389.56403Q41.221874 388.51715 41.05 386.6734L42.76875 386.6734Q42.925 387.89215 43.628124 388.51715Q44.33125 389.12653 45.4875 389.12653Q46.753124 389.12653 47.471874 388.26715Q48.190624 387.40778 48.190624 385.89215Q48.190624 384.47028 47.409374 383.6109Q46.628124 382.7359 45.346874 382.7359Q44.159374 382.7359 43.4875 383.25153L43.003124 383.64215L41.565624 383.28278ZM51.95625 389.45465Q51.95625 388.9859 52.2375 388.6734Q52.51875 388.3609 53.065624 388.3609Q53.628124 388.3609 53.909374 388.6734Q54.20625 388.9859 54.20625 389.45465Q54.20625 389.90778 53.909374 390.22028Q53.628124 390.51715 53.065624 390.51715Q52.51875 390.51715 52.2375 390.22028Q51.95625 389.90778 51.95625 389.45465ZM65.64375 384.34528Q65.64375 387.51715 64.56563 389.06403Q63.4875 390.6109 61.175 390.6109Q58.89375 390.6109 57.8 389.09528Q56.70625 387.57965 56.675 384.57965L56.675 382.1734Q56.675 379.03278 57.753124 377.51715Q58.846874 375.9859 61.159374 375.9859Q63.45625 375.9859 64.53438 377.47028Q65.6125 378.93903 65.64375 382.00153L65.64375 384.34528ZM63.846874 381.87653Q63.846874 379.57965 63.190624 378.53278Q62.55 377.47028 61.159374 377.47028Q59.76875 377.47028 59.128124 378.51715Q58.503124 379.56403 58.4875 381.7359L58.4875 384.62653Q58.4875 386.9234 59.14375 388.03278Q59.815624 389.12653 61.175 389.12653Q62.51875 389.12653 63.159374 388.09528Q63.815624 387.06403 63.846874 384.82965L63.846874 381.87653ZM67.58125 378.9234Q67.58125 377.64215 68.39375 376.81403Q69.20625 375.9859 70.4875 375.9859Q71.78438 375.9859 72.58125 376.82965Q73.39375 377.65778 73.39375 378.9859L73.39375 379.6734Q73.39375 380.97028 72.58125 381.78278Q71.76875 382.59528 70.50313 382.59528Q69.2375 382.59528 68.40938 381.78278Q67.58125 380.97028 67.58125 379.6109L67.58125 378.9234ZM68.925 379.6734Q68.925 380.43903 69.34688 380.93903Q69.78438 381.4234 70.50313 381.4234Q71.20625 381.4234 71.62813 380.95465Q72.05 380.47028 72.05 379.64215L72.05 378.9234Q72.05 378.15778 71.62813 377.65778Q71.20625 377.15778 70.4875 377.15778Q69.76875 377.15778 69.34688 377.65778Q68.925 378.15778 68.925 378.95465L68.925 379.6734ZM74.50313 386.9234Q74.50313 385.64215 75.31563 384.81403Q76.12813 383.9859 77.40938 383.9859Q78.69063 383.9859 79.50313 384.81403Q80.33125 385.62653 80.33125 386.9859L80.33125 387.68903Q80.33125 388.95465 79.51875 389.78278Q78.70625 390.6109 77.425 390.6109Q76.15938 390.6109 75.33125 389.7984Q74.50313 388.9859 74.50313 387.62653L74.50313 386.9234ZM75.84688 387.68903Q75.84688 388.45465 76.26875 388.95465Q76.70625 389.43903 77.425 389.43903Q78.12813 389.43903 78.55 388.95465Q78.97188 388.47028 78.97188 387.64215L78.97188 386.9234Q78.97188 386.14215 78.55 385.65778Q78.12813 385.1734 77.40938 385.1734Q76.72188 385.1734 76.28438 385.65778Q75.84688 386.14215 75.84688 386.95465L75.84688 387.68903ZM70.90938 389.32965L69.89375 388.68903L76.83125 377.57965L77.8625 378.22028L70.90938 389.32965Z" fill-rule="nonzero"/><path stroke="#cdcdcd" stroke-width="1.0" stroke-linecap="butt" d="M28.55 369.90778L176.81667 369.90778L217.08508 369.90778" fill-rule="nonzero"/><path fill="#a4a4a4" d="M219.08508 369.90778C219.08508 368.80322 218.18965 367.90778 217.08508 367.90778C215.98051 367.90778 215.08508 368.80322 215.08508 369.90778C215.08508 371.01236 215.98051 371.90778 217.08508 371.90778C218.18965 371.90778 219.08508 371.01236 219.08508 369.90778" fill-rule="nonzero"/><path fill="#ffffff" d="M727.02814 149.43826L725.1375 149.43826L725.1375 142.86014L717.98126 142.86014L717.98126 149.43826L716.10626 149.43826L716.10626 135.21951L717.98126 135.21951L717.98126 141.32889L725.1375 141.32889L725.1375 135.21951L727.02814 135.21951L727.02814 149.43826ZM729.34064 144.06326Q729.34064 142.50076 729.95 141.26639Q730.5594 140.01639 731.6375 139.34451Q732.73126 138.67264 734.1375 138.67264Q736.29376 138.67264 737.6219 140.17264Q738.96564 141.65701 738.96564 144.14139L738.96564 144.26639Q738.96564 145.81326 738.3719 147.04764Q737.77814 148.26639 736.66876 148.95389Q735.575 149.64139 734.15314 149.64139Q732.0125 149.64139 730.66876 148.14139Q729.34064 146.64139 729.34064 144.18826L729.34064 144.06326ZM731.15314 144.26639Q731.15314 146.03201 731.96564 147.09451Q732.79376 148.15701 734.15314 148.15701Q735.52814 148.15701 736.34064 147.07889Q737.15314 146.00076 737.15314 144.06326Q737.15314 142.31326 736.325 141.23514Q735.4969 140.15701 734.1375 140.15701Q732.79376 140.15701 731.96564 141.21951Q731.15314 142.28201 731.15314 144.26639ZM742.77814 149.43826L740.98126 149.43826L740.98126 134.43826L742.77814 134.43826L742.77814 149.43826ZM745.3719 144.06326Q745.3719 141.64139 746.52814 140.15701Q747.6844 138.67264 749.54376 138.67264Q751.40314 138.67264 752.48126 139.93826L752.48126 134.43826L754.29376 134.43826L754.29376 149.43826L752.6375 149.43826L752.54376 148.29764Q751.46564 149.64139 749.52814 149.64139Q747.7 149.64139 746.52814 148.14139Q745.3719 146.62576 745.3719 144.20389L745.3719 144.06326ZM747.1844 144.26639Q747.1844 146.06326 747.91876 147.07889Q748.66876 148.09451 749.98126 148.09451Q751.7 148.09451 752.48126 146.56326L752.48126 141.70389Q751.6844 140.20389 749.9969 140.20389Q748.66876 140.20389 747.91876 141.23514Q747.1844 142.26639 747.1844 144.26639ZM761.2 149.64139Q759.0594 149.64139 757.7 148.23514Q756.35626 146.81326 756.35626 144.45389L756.35626 144.11014Q756.35626 142.54764 756.95 141.31326Q757.5594 140.07889 758.6375 139.37576Q759.71564 138.67264 760.98126 138.67264Q763.04376 138.67264 764.1844 140.03201Q765.325 141.39139 765.325 143.92264L765.325 144.67264L758.16876 144.67264Q758.2 146.23514 759.075 147.20389Q759.95 148.15701 761.29376 148.15701Q762.2625 148.15701 762.91876 147.76639Q763.59064 147.37576 764.09064 146.73514L765.1844 147.59451Q763.85626 149.64139 761.2 149.64139ZM760.98126 140.15701Q759.8875 140.15701 759.1375 140.95389Q758.40314 141.75076 758.23126 143.18826L763.5125 143.18826L763.5125 143.04764Q763.4344 141.67264 762.7625 140.92264Q762.10626 140.15701 760.98126 140.15701ZM772.91876 140.48514Q772.5125 140.42264 772.04376 140.42264Q770.2625 140.42264 769.6219 141.93826L769.6219 149.43826L767.825 149.43826L767.825 138.87576L769.575 138.87576L769.60626 140.09451Q770.4969 138.67264 772.1219 138.67264Q772.65314 138.67264 772.91876 138.81326L772.91876 140.48514ZM780.96564 146.64139Q780.96564 145.90701 780.41876 145.50076Q779.8719 145.09451 778.4969 144.79764Q777.1219 144.50076 776.3094 144.09451Q775.5125 143.68826 775.1219 143.12576Q774.7469 142.54764 774.7469 141.76639Q774.7469 140.46951 775.84064 139.57889Q776.9344 138.67264 778.65314 138.67264Q780.45 138.67264 781.5594 139.61014Q782.6844 140.53201 782.6844 141.96951L780.85626 141.96951Q780.85626 141.23514 780.23126 140.70389Q779.60626 140.15701 778.65314 140.15701Q777.65314 140.15701 777.09064 140.59451Q776.54376 141.01639 776.54376 141.71951Q776.54376 142.36014 777.0594 142.70389Q777.575 143.03201 778.9344 143.34451Q780.29376 143.64139 781.1219 144.06326Q781.96564 144.46951 782.3719 145.06326Q782.77814 145.65701 782.77814 146.50076Q782.77814 147.92264 781.6375 148.78201Q780.5125 149.64139 778.7 149.64139Q777.4344 149.64139 776.45 149.18826Q775.48126 148.73514 774.91876 147.93826Q774.3719 147.12576 774.3719 146.18826L776.1844 146.18826Q776.23126 147.09451 776.90314 147.62576Q777.59064 148.15701 778.7 148.15701Q779.73126 148.15701 780.34064 147.75076Q780.96564 147.32889 780.96564 146.64139Z" fill-rule="nonzero"/><path fill="#a4a4a4" d="M743.46564 169.31326L744.1844 162.21951L751.46564 162.21951L751.46564 163.89139L745.71564 163.89139L745.29376 167.76639Q746.34064 167.15701 747.66876 167.15701Q749.60626 167.15701 750.7469 168.43826Q751.8875 169.71951 751.8875 171.90701Q751.8875 174.11014 750.7 175.37576Q749.5125 176.64139 747.3875 176.64139Q745.4969 176.64139 744.3094 175.59451Q743.1219 174.54764 742.95 172.70389L744.66876 172.70389Q744.825 173.92264 745.52814 174.54764Q746.23126 175.15701 747.3875 175.15701Q748.65314 175.15701 749.3719 174.29764Q750.09064 173.43826 750.09064 171.92264Q750.09064 170.50076 749.3094 169.64139Q748.52814 168.76639 747.2469 168.76639Q746.0594 168.76639 745.3875 169.28201L744.90314 169.67264L743.46564 169.31326ZM753.85626 175.48514Q753.85626 175.01639 754.1375 174.70389Q754.41876 174.39139 754.96564 174.39139Q755.52814 174.39139 755.8094 174.70389Q756.10626 175.01639 756.10626 175.48514Q756.10626 175.93826 755.8094 176.25076Q755.52814 176.54764 754.96564 176.54764Q754.41876 176.54764 754.1375 176.25076Q753.85626 175.93826 753.85626 175.48514ZM767.54376 170.37576Q767.54376 173.54764 766.46564 175.09451Q765.3875 176.64139 763.075 176.64139Q760.79376 176.64139 759.7 175.12576Q758.60626 173.61014 758.575 170.61014L758.575 168.20389Q758.575 165.06326 759.65314 163.54764Q760.7469 162.01639 763.0594 162.01639Q765.35626 162.01639 766.4344 163.50076Q767.5125 164.96951 767.54376 168.03201L767.54376 170.37576ZM765.7469 167.90701Q765.7469 165.61014 765.09064 164.56326Q764.45 163.50076 763.0594 163.50076Q761.66876 163.50076 761.02814 164.54764Q760.40314 165.59451 760.3875 167.76639L760.3875 170.65701Q760.3875 172.95389 761.04376 174.06326Q761.71564 175.15701 763.075 175.15701Q764.41876 175.15701 765.0594 174.12576Q765.71564 173.09451 765.7469 170.86014L765.7469 167.90701ZM769.48126 164.95389Q769.48126 163.67264 770.29376 162.84451Q771.10626 162.01639 772.3875 162.01639Q773.6844 162.01639 774.48126 162.86014Q775.29376 163.68826 775.29376 165.01639L775.29376 165.70389Q775.29376 167.00076 774.48126 167.81326Q773.66876 168.62576 772.40314 168.62576Q771.1375 168.62576 770.3094 167.81326Q769.48126 167.00076 769.48126 165.64139L769.48126 164.95389ZM770.825 165.70389Q770.825 166.46951 771.2469 166.96951Q771.6844 167.45389 772.40314 167.45389Q773.10626 167.45389 773.52814 166.98514Q773.95 166.50076 773.95 165.67264L773.95 164.95389Q773.95 164.18826 773.52814 163.68826Q773.10626 163.18826 772.3875 163.18826Q771.66876 163.18826 771.2469 163.68826Q770.825 164.18826 770.825 164.98514L770.825 165.70389ZM776.40314 172.95389Q776.40314 171.67264 777.21564 170.84451Q778.02814 170.01639 779.3094 170.01639Q780.59064 170.01639 781.40314 170.84451Q782.23126 171.65701 782.23126 173.01639L782.23126 173.71951Q782.23126 174.98514 781.41876 175.81326Q780.60626 176.64139 779.325 176.64139Q778.0594 176.64139 777.23126 175.82889Q776.40314 175.01639 776.40314 173.65701L776.40314 172.95389ZM777.7469 173.71951Q777.7469 174.48514 778.16876 174.98514Q778.60626 175.46951 779.325 175.46951Q780.02814 175.46951 780.45 174.98514Q780.8719 174.50076 780.8719 173.67264L780.8719 172.95389Q780.8719 172.17264 780.45 171.68826Q780.02814 171.20389 779.3094 171.20389Q778.6219 171.20389 778.1844 171.68826Q777.7469 172.17264 777.7469 172.98514L777.7469 173.71951ZM772.8094 175.36014L771.79376 174.71951L778.73126 163.61014L779.7625 164.25076L772.8094 175.36014Z" fill-rule="nonzero"/><path stroke="#cdcdcd" stroke-width="1.0" stroke-linecap="butt" d="M783.45 155.93826L635.18335 155.93826L439.16788 155.93826" fill-rule="nonzero"/><path fill="#a4a4a4" d="M441.16788 155.93826C441.16788 154.8337 440.27246 153.93826 439.16788 153.93826C438.06332 153.93826 437.16788 154.8337 437.16788 155.93826C437.16788 157.04283 438.06332 157.93826 439.16788 157.93826C440.27246 157.93826 441.16788 157.04283 441.16788 155.93826" fill-rule="nonzero"/><path fill="#ffffff" d="M672.16876 337.4069L672.4344 339.2819L672.84064 337.5944L675.65314 327.67252L677.23126 327.67252L679.98126 337.5944L680.3719 339.31314L680.66876 337.39127L682.8875 327.67252L684.7625 327.67252L681.325 341.89127L679.60626 341.89127L676.6844 331.5319L676.45 330.43814L676.23126 331.5319L673.2 341.89127L671.48126 341.89127L668.04376 327.67252L669.91876 327.67252L672.16876 337.4069ZM693.34064 341.89127Q693.1844 341.57877 693.09064 340.7819Q691.825 342.0944 690.075 342.0944Q688.5125 342.0944 687.5125 341.20377Q686.5125 340.31314 686.5125 338.95377Q686.5125 337.31314 687.7625 336.4069Q689.02814 335.48502 691.29376 335.48502L693.0594 335.48502L693.0594 334.6569Q693.0594 333.70377 692.48126 333.14127Q691.91876 332.57877 690.825 332.57877Q689.85626 332.57877 689.2 333.07877Q688.54376 333.56314 688.54376 334.25064L686.73126 334.25064Q686.73126 333.4694 687.29376 332.73502Q687.85626 331.98502 688.8094 331.56314Q689.77814 331.12564 690.9344 331.12564Q692.7625 331.12564 693.79376 332.04752Q694.825 332.95377 694.8719 334.56314L694.8719 339.42252Q694.8719 340.87564 695.23126 341.73502L695.23126 341.89127L693.34064 341.89127ZM690.34064 340.51627Q691.2 340.51627 691.95 340.07877Q692.71564 339.64127 693.0594 338.93814L693.0594 336.76627L691.6375 336.76627Q688.325 336.76627 688.325 338.70377Q688.325 339.56314 688.8875 340.04752Q689.45 340.51627 690.34064 340.51627ZM699.77814 341.89127L697.98126 341.89127L697.98126 326.89127L699.77814 326.89127L699.77814 341.89127ZM704.77814 341.89127L702.98126 341.89127L702.98126 326.89127L704.77814 326.89127L704.77814 341.89127ZM712.2 342.0944Q710.0594 342.0944 708.7 340.68814Q707.35626 339.26627 707.35626 336.9069L707.35626 336.56314Q707.35626 335.00064 707.95 333.76627Q708.5594 332.5319 709.6375 331.82877Q710.71564 331.12564 711.98126 331.12564Q714.04376 331.12564 715.1844 332.48502Q716.325 333.8444 716.325 336.37564L716.325 337.12564L709.16876 337.12564Q709.2 338.68814 710.075 339.6569Q710.95 340.61002 712.29376 340.61002Q713.2625 340.61002 713.91876 340.2194Q714.59064 339.82877 715.09064 339.18814L716.1844 340.04752Q714.85626 342.0944 712.2 342.0944ZM711.98126 332.61002Q710.8875 332.61002 710.1375 333.4069Q709.40314 334.20377 709.23126 335.64127L714.5125 335.64127L714.5125 335.50064Q714.4344 334.12564 713.7625 333.37564Q713.10626 332.61002 711.98126 332.61002ZM721.2625 328.76627L721.2625 331.32877L723.2469 331.32877L723.2469 332.7194L721.2625 332.7194L721.2625 339.26627Q721.2625 339.9069 721.52814 340.23502Q721.79376 340.54752 722.4344 340.54752Q722.7469 340.54752 723.29376 340.42252L723.29376 341.89127Q722.575 342.0944 721.90314 342.0944Q720.7 342.0944 720.075 341.36002Q719.46564 340.62564 719.46564 339.26627L719.46564 332.7194L717.54376 332.7194L717.54376 331.32877L719.46564 331.32877L719.46564 328.76627L721.2625 328.76627ZM730.7469 336.12564Q730.7469 333.9069 731.34064 331.87564Q731.9344 329.8444 733.10626 328.18814Q734.27814 326.5319 735.52814 325.8444L735.90314 327.0319Q734.48126 328.12564 733.5594 330.37564Q732.65314 332.62564 732.5594 335.4069L732.5594 336.23502Q732.5594 340.00064 733.9344 342.7819Q734.7625 344.43814 735.90314 345.37564L735.52814 346.48502Q734.23126 345.76627 733.0594 344.06314Q730.7469 340.73502 730.7469 336.12564ZM738.10626 341.89127L738.10626 327.67252L742.1219 327.67252Q743.96564 327.67252 745.3875 328.50064Q746.825 329.31314 747.59064 330.82877Q748.3719 332.3444 748.3875 334.29752L748.3875 335.20377Q748.3875 337.2194 747.60626 338.73502Q746.825 340.25064 745.3875 341.06314Q743.95 341.87564 742.04376 341.89127L738.10626 341.89127ZM739.98126 329.2194L739.98126 340.36002L741.95 340.36002Q744.1219 340.36002 745.325 339.01627Q746.52814 337.6569 746.52814 335.17252L746.52814 334.3444Q746.52814 331.92252 745.3875 330.57877Q744.2469 329.23502 742.16876 329.2194L739.98126 329.2194ZM758.95 338.17252L752.9969 338.17252L751.65314 341.89127L749.73126 341.89127L755.15314 327.67252L756.79376 327.67252L762.23126 341.89127L760.3094 341.89127L758.95 338.17252ZM753.5594 336.64127L758.40314 336.64127L755.98126 329.98502L753.5594 336.64127ZM775.04376 335.23502Q775.04376 337.32877 774.34064 338.89127Q773.6375 340.43814 772.34064 341.26627Q771.0594 342.0944 769.34064 342.0944Q767.65314 342.0944 766.35626 341.26627Q765.0594 340.43814 764.34064 338.9069Q763.6219 337.37564 763.60626 335.36002L763.60626 334.3444Q763.60626 332.29752 764.3094 330.7194Q765.02814 329.14127 766.325 328.31314Q767.6375 327.4694 769.3094 327.4694Q771.02814 327.4694 772.325 328.29752Q773.6375 329.12564 774.34064 330.70377Q775.04376 332.26627 775.04376 334.3444L775.04376 335.23502ZM773.16876 334.32877Q773.16876 331.79752 772.15314 330.45377Q771.1375 329.0944 769.3094 329.0944Q767.54376 329.0944 766.5125 330.45377Q765.4969 331.79752 765.46564 334.18814L765.46564 335.23502Q765.46564 337.68814 766.4969 339.0944Q767.52814 340.50064 769.34064 340.50064Q771.15314 340.50064 772.1375 339.17252Q773.1375 337.8444 773.16876 335.37564L773.16876 334.32877ZM781.98126 336.2194Q781.98126 338.39127 781.40314 340.39127Q780.84064 342.39127 779.66876 344.07877Q778.4969 345.76627 777.2 346.48502L776.825 345.37564Q778.325 344.2194 779.23126 341.79752Q780.15314 339.37564 780.16876 336.4069L780.16876 336.0944Q780.16876 334.04752 779.73126 332.2819Q779.3094 330.51627 778.54376 329.12564Q777.77814 327.73502 776.825 326.95377L777.2 325.8444Q778.4969 326.56314 779.65314 328.23502Q780.825 329.89127 781.40314 331.9069Q781.98126 333.92252 781.98126 336.2194Z" fill-rule="nonzero"/><path fill="#a4a4a4" d="M732.46564 361.76627L733.1844 354.67252L740.46564 354.67252L740.46564 356.3444L734.71564 356.3444L734.29376 360.2194Q735.34064 359.61002 736.66876 359.61002Q738.60626 359.61002 739.7469 360.89127Q740.8875 362.17252 740.8875 364.36002Q740.8875 366.56314 739.7 367.82877Q738.5125 369.0944 736.3875 369.0944Q734.4969 369.0944 733.3094 368.04752Q732.1219 367.00064 731.95 365.1569L733.66876 365.1569Q733.825 366.37564 734.52814 367.00064Q735.23126 367.61002 736.3875 367.61002Q737.65314 367.61002 738.3719 366.75064Q739.09064 365.89127 739.09064 364.37564Q739.09064 362.95377 738.3094 362.0944Q737.52814 361.2194 736.2469 361.2194Q735.0594 361.2194 734.3875 361.73502L733.90314 362.12564L732.46564 361.76627ZM751.54376 362.82877Q751.54376 366.00064 750.46564 367.54752Q749.3875 369.0944 747.075 369.0944Q744.79376 369.0944 743.7 367.57877Q742.60626 366.06314 742.575 363.06314L742.575 360.6569Q742.575 357.51627 743.65314 356.00064Q744.7469 354.4694 747.0594 354.4694Q749.35626 354.4694 750.4344 355.95377Q751.5125 357.42252 751.54376 360.48502L751.54376 362.82877ZM749.7469 360.36002Q749.7469 358.06314 749.09064 357.01627Q748.45 355.95377 747.0594 355.95377Q745.66876 355.95377 745.02814 357.00064Q744.40314 358.04752 744.3875 360.2194L744.3875 363.11002Q744.3875 365.4069 745.04376 366.51627Q745.71564 367.61002 747.075 367.61002Q748.41876 367.61002 749.0594 366.57877Q749.71564 365.54752 749.7469 363.31314L749.7469 360.36002ZM753.85626 367.93814Q753.85626 367.4694 754.1375 367.1569Q754.41876 366.8444 754.96564 366.8444Q755.52814 366.8444 755.8094 367.1569Q756.10626 367.4694 756.10626 367.93814Q756.10626 368.39127 755.8094 368.70377Q755.52814 369.00064 754.96564 369.00064Q754.41876 369.00064 754.1375 368.70377Q753.85626 368.39127 753.85626 367.93814ZM767.54376 362.82877Q767.54376 366.00064 766.46564 367.54752Q765.3875 369.0944 763.075 369.0944Q760.79376 369.0944 759.7 367.57877Q758.60626 366.06314 758.575 363.06314L758.575 360.6569Q758.575 357.51627 759.65314 356.00064Q760.7469 354.4694 763.0594 354.4694Q765.35626 354.4694 766.4344 355.95377Q767.5125 357.42252 767.54376 360.48502L767.54376 362.82877ZM765.7469 360.36002Q765.7469 358.06314 765.09064 357.01627Q764.45 355.95377 763.0594 355.95377Q761.66876 355.95377 761.02814 357.00064Q760.40314 358.04752 760.3875 360.2194L760.3875 363.11002Q760.3875 365.4069 761.04376 366.51627Q761.71564 367.61002 763.075 367.61002Q764.41876 367.61002 765.0594 366.57877Q765.71564 365.54752 765.7469 363.31314L765.7469 360.36002ZM769.48126 357.4069Q769.48126 356.12564 770.29376 355.29752Q771.10626 354.4694 772.3875 354.4694Q773.6844 354.4694 774.48126 355.31314Q775.29376 356.14127 775.29376 357.4694L775.29376 358.1569Q775.29376 359.45377 774.48126 360.26627Q773.66876 361.07877 772.40314 361.07877Q771.1375 361.07877 770.3094 360.26627Q769.48126 359.45377 769.48126 358.0944L769.48126 357.4069ZM770.825 358.1569Q770.825 358.92252 771.2469 359.42252Q771.6844 359.9069 772.40314 359.9069Q773.10626 359.9069 773.52814 359.43814Q773.95 358.95377 773.95 358.12564L773.95 357.4069Q773.95 356.64127 773.52814 356.14127Q773.10626 355.64127 772.3875 355.64127Q771.66876 355.64127 771.2469 356.14127Q770.825 356.64127 770.825 357.43814L770.825 358.1569ZM776.40314 365.4069Q776.40314 364.12564 777.21564 363.29752Q778.02814 362.4694 779.3094 362.4694Q780.59064 362.4694 781.40314 363.29752Q782.23126 364.11002 782.23126 365.4694L782.23126 366.17252Q782.23126 367.43814 781.41876 368.26627Q780.60626 369.0944 779.325 369.0944Q778.0594 369.0944 777.23126 368.2819Q776.40314 367.4694 776.40314 366.11002L776.40314 365.4069ZM777.7469 366.17252Q777.7469 366.93814 778.16876 367.43814Q778.60626 367.92252 779.325 367.92252Q780.02814 367.92252 780.45 367.43814Q780.8719 366.95377 780.8719 366.12564L780.8719 365.4069Q780.8719 364.62564 780.45 364.14127Q780.02814 363.6569 779.3094 363.6569Q778.6219 363.6569 778.1844 364.14127Q777.7469 364.62564 777.7469 365.43814L777.7469 366.17252ZM772.8094 367.81314L771.79376 367.17252L778.73126 356.06314L779.7625 356.70377L772.8094 367.81314Z" fill-rule="nonzero"/><path stroke="#cdcdcd" stroke-width="1.0" stroke-linecap="butt" d="M783.45 348.39127L635.18335 348.39127L607.647 348.39127" fill-rule="nonzero"/><path fill="#a4a4a4" d="M609.647 348.39127C609.647 347.28668 608.7515 346.39127 607.647 346.39127C606.5424 346.39127 605.647 347.28668 605.647 348.39127C605.647 349.49585 606.5424 350.39127 607.647 350.39127C608.7515 350.39127 609.647 349.49585 609.647 348.39127" fill-rule="nonzero"/><path fill="#ffffff" d="M363.15625 73.05L363.15625 63.096878L365.96875 63.096878Q367.26562 63.096878 368.26562 63.675003Q369.26562 64.2375 369.79688 65.3Q370.34375 66.3625 370.35938 67.7375L370.35938 68.37813Q370.35938 69.78438 369.8125 70.84688Q369.26562 71.89375 368.25 72.47188Q367.25 73.03438 365.90625 73.05L363.15625 73.05ZM364.46875 64.175L364.46875 71.97188L365.84375 71.97188Q367.35938 71.97188 368.20312 71.03438Q369.0625 70.09688 369.0625 68.34688L369.0625 67.76875Q369.0625 66.06563 368.26562 65.12813Q367.46875 64.19063 366.0 64.175L364.46875 64.175ZM379.15625 63.096878L379.15625 69.8625Q379.15625 71.26875 378.28125 72.175Q377.40625 73.06563 375.89062 73.175L375.54688 73.19063Q373.90625 73.19063 372.9375 72.31563Q371.96875 71.425 371.95312 69.87813L371.95312 63.096878L373.25 63.096878L373.25 69.83125Q373.25 70.90938 373.84375 71.51875Q374.45312 72.1125 375.54688 72.1125Q376.65625 72.1125 377.25 71.51875Q377.84375 70.925 377.84375 69.84688L377.84375 63.096878L379.15625 63.096878ZM384.8125 69.01875L382.46875 69.01875L382.46875 73.05L381.15625 73.05L381.15625 63.096878L384.4375 63.096878Q386.125 63.096878 387.03125 63.862503Q387.9375 64.62813 387.9375 66.09688Q387.9375 67.01875 387.4375 67.70625Q386.9375 68.39375 386.03125 68.7375L388.375 72.97188L388.375 73.05L386.96875 73.05L384.8125 69.01875ZM382.46875 67.95625L384.48438 67.95625Q385.46875 67.95625 386.04688 67.45625Q386.625 66.94063 386.625 66.09688Q386.625 65.175 386.0625 64.69063Q385.51562 64.19063 384.48438 64.175L382.46875 64.175L382.46875 67.95625ZM391.5625 73.05L390.25 73.05L390.25 63.096878L391.5625 63.096878L391.5625 73.05ZM401.8125 73.05L400.48438 73.05L395.46875 65.37813L395.46875 73.05L394.15625 73.05L394.15625 63.096878L395.46875 63.096878L400.5 70.8L400.5 63.096878L401.8125 63.096878L401.8125 73.05ZM411.5 71.7375Q411.0 72.47188 410.09375 72.83125Q409.1875 73.19063 407.98438 73.19063Q406.76562 73.19063 405.8125 72.62813Q404.875 72.05 404.35938 71.00313Q403.84375 69.94063 403.82812 68.55L403.82812 67.69063Q403.82812 65.44063 404.875 64.20625Q405.9375 62.956253 407.82812 62.956253Q409.39062 62.956253 410.34375 63.753128Q411.29688 64.55 411.5 66.01875L410.1875 66.01875Q409.82812 64.03438 407.84375 64.03438Q406.51562 64.03438 405.82812 64.97188Q405.15625 65.89375 405.15625 67.64375L405.15625 68.45625Q405.15625 70.14375 405.92188 71.12813Q406.6875 72.1125 407.98438 72.1125Q408.73438 72.1125 409.28125 71.95625Q409.84375 71.78438 410.20312 71.39375L410.20312 69.15938L407.89062 69.15938L407.89062 68.09688L411.5 68.09688L411.5 71.7375ZM418.84375 63.096878L422.10938 71.22188L425.35938 63.096878L427.0625 63.096878L427.0625 73.05L425.75 73.05L425.75 69.175L425.875 64.9875L422.60938 73.05L421.59375 73.05L418.34375 65.00313L418.46875 69.175L418.46875 73.05L417.15625 73.05L417.15625 63.096878L418.84375 63.096878ZM430.5625 73.05L429.25 73.05L429.25 63.096878L430.5625 63.096878L430.5625 73.05ZM440.8125 73.05L439.48438 73.05L434.46875 65.37813L434.46875 73.05L433.15625 73.05L433.15625 63.096878L434.46875 63.096878L439.5 70.8L439.5 63.096878L440.8125 63.096878L440.8125 73.05ZM450.03125 64.175L446.82812 64.175L446.82812 73.05L445.53125 73.05L445.53125 64.175L442.32812 64.175L442.32812 63.096878L450.03125 63.096878L450.03125 64.175Z" fill-rule="nonzero"/><path fill="#ffffff" d="M322.71875 41.846874L321.20312 43.4875L321.20312 47.55L318.26562 47.55L318.26562 33.33125L321.20312 33.33125L321.20312 39.76875L322.48438 38.003124L326.10938 33.33125L329.71875 33.33125L324.67188 39.64375L329.85938 47.55L326.375 47.55L322.71875 41.846874ZM331.21875 41.76875Q331.21875 39.534374 331.8125 37.51875Q332.40625 35.4875 333.5625 33.940624Q334.73438 32.378124 336.07812 31.76875L336.625 33.284374Q335.20312 34.346874 334.40625 36.55Q333.60938 38.753124 333.60938 41.70625L333.60938 42.01875Q333.60938 44.971874 334.39062 47.190624Q335.1875 49.409374 336.625 50.503124L336.07812 51.9875Q334.75 51.39375 333.60938 49.878124Q332.46875 48.378124 331.85938 46.409374Q331.25 44.440624 331.21875 42.284374L331.21875 41.76875ZM346.29688 44.6125L341.15625 44.6125L340.1875 47.55L337.0625 47.55L342.35938 33.33125L345.07812 33.33125L350.40625 47.55L347.28125 47.55L346.29688 44.6125ZM341.95312 42.253124L345.5 42.253124L343.71875 36.925L341.95312 42.253124ZM354.39062 47.55L351.45312 47.55L351.45312 33.33125L354.39062 33.33125L354.39062 47.55ZM361.95312 41.9875Q361.95312 44.20625 361.3125 46.253124Q360.67188 48.284374 359.48438 49.846874Q358.29688 51.409374 356.9375 51.9875L356.39062 50.503124Q357.78125 49.45625 358.57812 47.284374Q359.375 45.096874 359.40625 42.26875L359.40625 41.753124Q359.40625 38.83125 358.60938 36.6125Q357.8125 34.378124 356.39062 33.26875L356.9375 31.76875Q358.26562 32.346874 359.4375 33.8625Q360.625 35.378124 361.26562 37.39375Q361.92188 39.39375 361.95312 41.55L361.95312 41.9875ZM379.96875 35.70625L375.625 35.70625L375.625 47.55L372.6875 47.55L372.6875 35.70625L368.39062 35.70625L368.39062 33.33125L379.96875 33.33125L379.96875 35.70625ZM392.95312 40.76875Q392.95312 42.8625 392.20312 44.440624Q391.46875 46.01875 390.07812 46.89375Q388.70312 47.753124 386.92188 47.753124Q385.14062 47.753124 383.75 46.909374Q382.375 46.05 381.60938 44.471874Q380.84375 42.89375 380.84375 40.846874L380.84375 40.14375Q380.84375 38.034374 381.59375 36.440624Q382.35938 34.846874 383.73438 33.9875Q385.125 33.128124 386.89062 33.128124Q388.67188 33.128124 390.04688 33.9875Q391.4375 34.846874 392.1875 36.440624Q392.95312 38.034374 392.95312 40.128124L392.95312 40.76875ZM389.98438 40.1125Q389.98438 37.878124 389.17188 36.721874Q388.375 35.55 386.89062 35.55Q385.42188 35.55 384.60938 36.70625Q383.8125 37.846874 383.8125 40.065624L383.8125 40.76875Q383.8125 42.940624 384.60938 44.14375Q385.40625 45.346874 386.92188 45.346874Q388.39062 45.346874 389.17188 44.190624Q389.96875 43.034374 389.98438 40.815624L389.98438 40.1125ZM399.71875 41.846874L398.20312 43.4875L398.20312 47.55L395.26562 47.55L395.26562 33.33125L398.20312 33.33125L398.20312 39.76875L399.48438 38.003124L403.10938 33.33125L406.71875 33.33125L401.67188 39.64375L406.85938 47.55L403.375 47.55L399.71875 41.846874ZM416.82812 41.39375L411.20312 41.39375L411.20312 45.190624L417.79688 45.190624L417.79688 47.55L408.26562 47.55L408.26562 33.33125L417.78125 33.33125L417.78125 35.70625L411.20312 35.70625L411.20312 39.096874L416.82812 39.096874L416.82812 41.39375ZM430.82812 47.55L427.90625 47.55L422.20312 38.190624L422.20312 47.55L419.26562 47.55L419.26562 33.33125L422.20312 33.33125L427.90625 42.70625L427.90625 33.33125L430.82812 33.33125L430.82812 47.55ZM444.95312 40.76875Q444.95312 42.8625 444.20312 44.440624Q443.46875 46.01875 442.07812 46.89375Q440.70312 47.753124 438.92188 47.753124Q437.14062 47.753124 435.75 46.909374Q434.375 46.05 433.60938 44.471874Q432.84375 42.89375 432.84375 40.846874L432.84375 40.14375Q432.84375 38.034374 433.59375 36.440624Q434.35938 34.846874 435.73438 33.9875Q437.125 33.128124 438.89062 33.128124Q440.67188 33.128124 442.04688 33.9875Q443.4375 34.846874 444.1875 36.440624Q444.95312 38.034374 444.95312 40.128124L444.95312 40.76875ZM441.98438 40.1125Q441.98438 37.878124 441.17188 36.721874Q440.375 35.55 438.89062 35.55Q437.42188 35.55 436.60938 36.70625Q435.8125 37.846874 435.8125 40.065624L435.8125 40.76875Q435.8125 42.940624 436.60938 44.14375Q437.40625 45.346874 438.92188 45.346874Q440.39062 45.346874 441.17188 44.190624Q441.96875 43.034374 441.98438 40.815624L441.98438 40.1125ZM451.09375 33.33125L454.75 43.64375L458.39062 33.33125L462.23438 33.33125L462.23438 47.55L459.29688 47.55L459.29688 43.659374L459.57812 36.95625L455.75 47.55L453.73438 47.55L449.90625 36.95625L450.20312 43.659374L450.20312 47.55L447.26562 47.55L447.26562 33.33125L451.09375 33.33125ZM468.39062 47.55L465.45312 47.55L465.45312 33.33125L468.39062 33.33125L468.39062 47.55ZM482.4375 42.815624Q482.26562 45.1125 480.73438 46.440624Q479.20312 47.753124 476.70312 47.753124Q473.96875 47.753124 472.40625 45.909374Q470.84375 44.065624 470.84375 40.846874L470.84375 39.9875Q470.84375 37.925 471.5625 36.3625Q472.28125 34.8 473.625 33.971874Q474.96875 33.128124 476.75 33.128124Q479.20312 33.128124 480.70312 34.45625Q482.21875 35.76875 482.45312 38.159374L479.51562 38.159374Q479.42188 36.784374 478.75 36.159374Q478.09375 35.534374 476.75 35.534374Q475.28125 35.534374 474.54688 36.596874Q473.82812 37.64375 473.8125 39.846874L473.8125 40.925Q473.8125 43.221874 474.5 44.284374Q475.20312 45.346874 476.70312 45.346874Q478.0625 45.346874 478.73438 44.7375Q479.40625 44.1125 479.5 42.815624L482.4375 42.815624ZM491.64062 43.815624Q491.64062 42.9875 491.04688 42.55Q490.46875 42.096874 488.9375 41.6125Q487.42188 41.1125 486.53125 40.628124Q484.10938 39.33125 484.10938 37.1125Q484.10938 35.95625 484.75 35.05Q485.40625 34.14375 486.625 33.64375Q487.84375 33.128124 489.35938 33.128124Q490.875 33.128124 492.0625 33.690624Q493.26562 34.2375 493.92188 35.253124Q494.57812 36.253124 494.57812 37.534374L491.65625 37.534374Q491.65625 36.55 491.03125 36.01875Q490.42188 35.471874 489.3125 35.471874Q488.23438 35.471874 487.64062 35.925Q487.04688 36.378124 487.04688 37.1125Q487.04688 37.815624 487.73438 38.284374Q488.4375 38.753124 489.79688 39.159374Q492.29688 39.909374 493.4375 41.034374Q494.57812 42.14375 494.57812 43.8Q494.57812 45.64375 493.1875 46.70625Q491.79688 47.753124 489.42188 47.753124Q487.78125 47.753124 486.4375 47.159374Q485.09375 46.55 484.375 45.503124Q483.67188 44.45625 483.67188 43.08125L486.60938 43.08125Q486.60938 45.425 489.42188 45.425Q490.46875 45.425 491.04688 45.003124Q491.64062 44.58125 491.64062 43.815624Z" fill-rule="nonzero"/></svg>